<?xml version="1.0" standalone="no"?>
<!DOCTYPE svg PUBLIC "-//W3C//DTD SVG 20010904//EN"
 "http://www.w3.org/TR/2001/REC-SVG-20010904/DTD/svg10.dtd">
<svg version="1.0" xmlns="http://www.w3.org/2000/svg"
 width="57.000000pt" height="50.000000pt" viewBox="0 0 57.000000 50.000000"
 preserveAspectRatio="xMidYMid meet">

<g transform="translate(0.000000,50.000000) scale(0.100000,-0.100000)"
fill="#000000" stroke="none">
<path fill="#ba4a56" d="M0 250 l0 -250 285 0 285 0 0 250 0 250 -285 0 -285 0 0 -250z m474
109 c2 -2 2 -16 -1 -31 -5 -28 -33 -40 -33 -14 0 17 -13 22 -82 31 -73 9 -164
-10 -194 -41 -81 -80 50 -183 200 -158 45 8 51 12 54 36 3 23 -1 28 -25 34
-52 11 -48 12 31 13 78 1 79 1 61 -19 -11 -13 -15 -27 -11 -44 8 -32 -6 -37
-135 -43 -124 -7 -188 9 -234 57 -64 66 -24 142 95 181 24 8 266 6 274 -2z"/>
</g>
</svg>
